<mxfile host="app.diagrams.net" modified="2021-03-04T07:50:31.021Z" agent="5.0 (Windows NT 10.0; Win64; x64) AppleWebKit/537.36 (KHTML, like Gecko) Chrome/88.0.4324.190 Safari/537.36" etag="Wyq7r-ifaPoQ4OV2MzWd" version="14.4.4" type="github">
  <diagram id="aMSh6BhhH2QDNYeK8jZP" name="Page-1">
    <mxGraphModel dx="1038" dy="580" grid="1" gridSize="10" guides="1" tooltips="1" connect="1" arrows="1" fold="1" page="1" pageScale="1" pageWidth="827" pageHeight="1169" math="0" shadow="0">
      <root>
        <mxCell id="0" />
        <mxCell id="1" parent="0" />
        <mxCell id="g-KiKxGeHPLMTcuxXQXt-1" value="" style="ellipse;whiteSpace=wrap;html=1;" vertex="1" parent="1">
          <mxGeometry x="331" y="10" width="120" height="80" as="geometry" />
        </mxCell>
        <mxCell id="g-KiKxGeHPLMTcuxXQXt-21" style="edgeStyle=orthogonalEdgeStyle;rounded=0;orthogonalLoop=1;jettySize=auto;html=1;exitX=0.5;exitY=1;exitDx=0;exitDy=0;entryX=0.5;entryY=0;entryDx=0;entryDy=0;" edge="1" parent="1" source="g-KiKxGeHPLMTcuxXQXt-2" target="g-KiKxGeHPLMTcuxXQXt-14">
          <mxGeometry relative="1" as="geometry" />
        </mxCell>
        <mxCell id="g-KiKxGeHPLMTcuxXQXt-2" value="Начало" style="text;html=1;strokeColor=none;fillColor=none;align=center;verticalAlign=middle;whiteSpace=wrap;rounded=0;" vertex="1" parent="1">
          <mxGeometry x="353" y="20" width="80" height="60" as="geometry" />
        </mxCell>
        <mxCell id="g-KiKxGeHPLMTcuxXQXt-19" style="edgeStyle=orthogonalEdgeStyle;rounded=0;orthogonalLoop=1;jettySize=auto;html=1;exitX=1;exitY=0.5;exitDx=0;exitDy=0;entryX=0;entryY=0.5;entryDx=0;entryDy=0;" edge="1" parent="1" source="g-KiKxGeHPLMTcuxXQXt-3" target="g-KiKxGeHPLMTcuxXQXt-14">
          <mxGeometry relative="1" as="geometry">
            <Array as="points">
              <mxPoint x="570" y="370" />
              <mxPoint x="570" y="470" />
              <mxPoint x="60" y="470" />
              <mxPoint x="60" y="164" />
            </Array>
          </mxGeometry>
        </mxCell>
        <mxCell id="g-KiKxGeHPLMTcuxXQXt-3" value="" style="rhombus;whiteSpace=wrap;html=1;" vertex="1" parent="1">
          <mxGeometry x="301" y="310" width="190" height="120" as="geometry" />
        </mxCell>
        <mxCell id="g-KiKxGeHPLMTcuxXQXt-4" value="isPremium == false" style="text;html=1;strokeColor=none;fillColor=none;align=center;verticalAlign=middle;whiteSpace=wrap;rounded=0;" vertex="1" parent="1">
          <mxGeometry x="334" y="340" width="130" height="50" as="geometry" />
        </mxCell>
        <mxCell id="g-KiKxGeHPLMTcuxXQXt-20" style="edgeStyle=orthogonalEdgeStyle;rounded=0;orthogonalLoop=1;jettySize=auto;html=1;exitX=0;exitY=0.5;exitDx=0;exitDy=0;" edge="1" parent="1" source="g-KiKxGeHPLMTcuxXQXt-5">
          <mxGeometry relative="1" as="geometry">
            <mxPoint x="60" y="320" as="targetPoint" />
            <Array as="points">
              <mxPoint x="60" y="430" />
            </Array>
          </mxGeometry>
        </mxCell>
        <mxCell id="g-KiKxGeHPLMTcuxXQXt-5" value="" style="shape=parallelogram;perimeter=parallelogramPerimeter;whiteSpace=wrap;html=1;fixedSize=1;" vertex="1" parent="1">
          <mxGeometry x="161" y="400" width="140" height="60" as="geometry" />
        </mxCell>
        <mxCell id="g-KiKxGeHPLMTcuxXQXt-6" value="ShowAds" style="text;html=1;strokeColor=none;fillColor=none;align=center;verticalAlign=middle;whiteSpace=wrap;rounded=0;" vertex="1" parent="1">
          <mxGeometry x="191" y="410" width="80" height="40" as="geometry" />
        </mxCell>
        <mxCell id="g-KiKxGeHPLMTcuxXQXt-7" value="" style="endArrow=classic;html=1;exitX=0;exitY=0.5;exitDx=0;exitDy=0;entryX=0.5;entryY=0;entryDx=0;entryDy=0;" edge="1" parent="1" source="g-KiKxGeHPLMTcuxXQXt-3" target="g-KiKxGeHPLMTcuxXQXt-5">
          <mxGeometry width="50" height="50" relative="1" as="geometry">
            <mxPoint x="390" y="310" as="sourcePoint" />
            <mxPoint x="440" y="260" as="targetPoint" />
            <Array as="points">
              <mxPoint x="231" y="370" />
            </Array>
          </mxGeometry>
        </mxCell>
        <mxCell id="g-KiKxGeHPLMTcuxXQXt-8" value="да" style="text;html=1;strokeColor=none;fillColor=none;align=center;verticalAlign=middle;whiteSpace=wrap;rounded=0;" vertex="1" parent="1">
          <mxGeometry x="250" y="340" width="40" height="20" as="geometry" />
        </mxCell>
        <mxCell id="g-KiKxGeHPLMTcuxXQXt-11" value="нет" style="text;html=1;strokeColor=none;fillColor=none;align=center;verticalAlign=middle;whiteSpace=wrap;rounded=0;" vertex="1" parent="1">
          <mxGeometry x="500" y="340" width="40" height="20" as="geometry" />
        </mxCell>
        <mxCell id="g-KiKxGeHPLMTcuxXQXt-12" value="" style="ellipse;whiteSpace=wrap;html=1;" vertex="1" parent="1">
          <mxGeometry x="334" y="480" width="120" height="80" as="geometry" />
        </mxCell>
        <mxCell id="g-KiKxGeHPLMTcuxXQXt-13" value="Конец" style="text;html=1;strokeColor=none;fillColor=none;align=center;verticalAlign=middle;whiteSpace=wrap;rounded=0;" vertex="1" parent="1">
          <mxGeometry x="376" y="508" width="40" height="20" as="geometry" />
        </mxCell>
        <mxCell id="g-KiKxGeHPLMTcuxXQXt-17" style="edgeStyle=orthogonalEdgeStyle;rounded=0;orthogonalLoop=1;jettySize=auto;html=1;exitX=1;exitY=0.5;exitDx=0;exitDy=0;entryX=1;entryY=0.5;entryDx=0;entryDy=0;" edge="1" parent="1" source="g-KiKxGeHPLMTcuxXQXt-14" target="g-KiKxGeHPLMTcuxXQXt-12">
          <mxGeometry relative="1" as="geometry">
            <Array as="points">
              <mxPoint x="660" y="164" />
              <mxPoint x="660" y="520" />
            </Array>
          </mxGeometry>
        </mxCell>
        <mxCell id="g-KiKxGeHPLMTcuxXQXt-24" style="edgeStyle=orthogonalEdgeStyle;rounded=0;orthogonalLoop=1;jettySize=auto;html=1;exitX=0.5;exitY=1;exitDx=0;exitDy=0;entryX=0.5;entryY=0;entryDx=0;entryDy=0;" edge="1" parent="1" source="g-KiKxGeHPLMTcuxXQXt-14" target="g-KiKxGeHPLMTcuxXQXt-22">
          <mxGeometry relative="1" as="geometry" />
        </mxCell>
        <mxCell id="g-KiKxGeHPLMTcuxXQXt-14" value="" style="shape=hexagon;perimeter=hexagonPerimeter2;whiteSpace=wrap;html=1;fixedSize=1;" vertex="1" parent="1">
          <mxGeometry x="321.5" y="127" width="143" height="73" as="geometry" />
        </mxCell>
        <mxCell id="g-KiKxGeHPLMTcuxXQXt-15" value="foreach &lt;font color=&quot;#0101fd&quot;&gt;string&lt;/font&gt;&lt;span style=&quot;color: rgb(23 , 23 , 23) ; font-family: , &amp;#34;consolas&amp;#34; , &amp;#34;liberation mono&amp;#34; , &amp;#34;menlo&amp;#34; , &amp;#34;courier&amp;#34; , monospace ; font-size: 14px ; background-color: rgb(250 , 250 , 250)&quot;&gt;&amp;nbsp;name&amp;nbsp;&lt;/span&gt;&lt;span class=&quot;hljs-keyword&quot; style=&quot;box-sizing: inherit ; outline-color: inherit ; color: rgb(1 , 1 , 253) ; font-family: , &amp;#34;consolas&amp;#34; , &amp;#34;liberation mono&amp;#34; , &amp;#34;menlo&amp;#34; , &amp;#34;courier&amp;#34; , monospace ; font-size: 14px ; background-color: rgb(250 , 250 , 250)&quot;&gt;in&lt;/span&gt;&lt;span style=&quot;color: rgb(23 , 23 , 23) ; font-family: , &amp;#34;consolas&amp;#34; , &amp;#34;liberation mono&amp;#34; , &amp;#34;menlo&amp;#34; , &amp;#34;courier&amp;#34; , monospace ; font-size: 14px ; background-color: rgb(250 , 250 , 250)&quot;&gt;&amp;nbsp;User&lt;/span&gt;" style="text;html=1;strokeColor=none;fillColor=none;align=center;verticalAlign=middle;whiteSpace=wrap;rounded=0;" vertex="1" parent="1">
          <mxGeometry x="334" y="143" width="120" height="40" as="geometry" />
        </mxCell>
        <mxCell id="g-KiKxGeHPLMTcuxXQXt-25" style="edgeStyle=orthogonalEdgeStyle;rounded=0;orthogonalLoop=1;jettySize=auto;html=1;exitX=0.5;exitY=1;exitDx=0;exitDy=0;entryX=0.5;entryY=0;entryDx=0;entryDy=0;" edge="1" parent="1" source="g-KiKxGeHPLMTcuxXQXt-22" target="g-KiKxGeHPLMTcuxXQXt-3">
          <mxGeometry relative="1" as="geometry" />
        </mxCell>
        <mxCell id="g-KiKxGeHPLMTcuxXQXt-22" value="" style="shape=parallelogram;perimeter=parallelogramPerimeter;whiteSpace=wrap;html=1;fixedSize=1;" vertex="1" parent="1">
          <mxGeometry x="334" y="225" width="120" height="60" as="geometry" />
        </mxCell>
        <mxCell id="g-KiKxGeHPLMTcuxXQXt-23" value="return &quot;Привет, {name}&quot;" style="text;html=1;strokeColor=none;fillColor=none;align=center;verticalAlign=middle;whiteSpace=wrap;rounded=0;" vertex="1" parent="1">
          <mxGeometry x="348" y="235" width="90" height="40" as="geometry" />
        </mxCell>
      </root>
    </mxGraphModel>
  </diagram>
</mxfile>
